{"asset":{"version":"2.0","generator":"Blockbench 5.0.4 glTF exporter"},"scenes":[{"nodes":[12],"name":"blockbench_export"}],"scene":0,"nodes":[{"translation":[-0.0625,0,0],"name":"cylinder","mesh":0},{"translation":[0.7286318749999999,-0.283769375,0.7475975],"name":"wheelLeftFront","children":[0]},{"translation":[-0.0625,0,0],"name":"cylinder","mesh":1},{"translation":[0.7286318749999999,-0.283769375,-1.0024025],"name":"wheelLeftRear","children":[2]},{"translation":[0.0625,0,0],"name":"cylinder","mesh":2},{"translation":[-0.727250625,-0.283769375,0.7475975],"name":"wheelRightFront","children":[4]},{"translation":[0.0625,0,0],"name":"cylinder","mesh":3},{"translation":[-0.727250625,-0.283769375,-1.0024025],"name":"wheelRightRear","children":[6]},{"translation":[0.031940625,-0.09626937499999999,-0.0649025],"name":"Chasis","mesh":4},{"translation":[0.969440625,0.36623062500000003,0.4350975],"name":"MirrorL","mesh":5},{"translation":[-0.968059375,0.36623062500000003,0.4350975],"name":"MirrorR","mesh":6},{"name":"Body","children":[8,9,10]},{"translation":[-0.000690625,0.533769375,0.0649025],"name":"Car","children":[1,3,5,7,11]}],"bufferViews":[{"buffer":0,"byteOffset":0,"byteLength":1728,"target":34962,"byteStride":12},{"buffer":0,"byteOffset":1728,"byteLength":1728,"target":34962,"byteStride":12},{"buffer":0,"byteOffset":3456,"byteLength":1152,"target":34962,"byteStride":8},{"buffer":0,"byteOffset":4608,"byteLength":384,"target":34963},{"buffer":0,"byteOffset":4992,"byteLength":1728,"target":34962,"byteStride":12},{"buffer":0,"byteOffset":6720,"byteLength":1728,"target":34962,"byteStride":12},{"buffer":0,"byteOffset":8448,"byteLength":1152,"target":34962,"byteStride":8},{"buffer":0,"byteOffset":9600,"byteLength":384,"target":34963},{"buffer":0,"byteOffset":9984,"byteLength":1728,"target":34962,"byteStride":12},{"buffer":0,"byteOffset":11712,"byteLength":1728,"target":34962,"byteStride":12},{"buffer":0,"byteOffset":13440,"byteLength":1152,"target":34962,"byteStride":8},{"buffer":0,"byteOffset":14592,"byteLength":384,"target":34963},{"buffer":0,"byteOffset":14976,"byteLength":1728,"target":34962,"byteStride":12},{"buffer":0,"byteOffset":16704,"byteLength":1728,"target":34962,"byteStride":12},{"buffer":0,"byteOffset":18432,"byteLength":1152,"target":34962,"byteStride":8},{"buffer":0,"byteOffset":19584,"byteLength":384,"target":34963},{"buffer":0,"byteOffset":19968,"byteLength":3936,"target":34962,"byteStride":12},{"buffer":0,"byteOffset":23904,"byteLength":3936,"target":34962,"byteStride":12},{"buffer":0,"byteOffset":27840,"byteLength":2624,"target":34962,"byteStride":8},{"buffer":0,"byteOffset":30464,"byteLength":984,"target":34963},{"buffer":0,"byteOffset":31448,"byteLength":672,"target":34962,"byteStride":12},{"buffer":0,"byteOffset":32120,"byteLength":672,"target":34962,"byteStride":12},{"buffer":0,"byteOffset":32792,"byteLength":448,"target":34962,"byteStride":8},{"buffer":0,"byteOffset":33240,"byteLength":168,"target":34963},{"buffer":0,"byteOffset":33408,"byteLength":672,"target":34962,"byteStride":12},{"buffer":0,"byteOffset":34080,"byteLength":672,"target":34962,"byteStride":12},{"buffer":0,"byteOffset":34752,"byteLength":448,"target":34962,"byteStride":8},{"buffer":0,"byteOffset":35200,"byteLength":168,"target":34963},{"buffer":0,"byteOffset":35368,"byteLength":12},{"buffer":0,"byteOffset":35380,"byteLength":48},{"buffer":0,"byteOffset":35428,"byteLength":12},{"buffer":0,"byteOffset":35440,"byteLength":48},{"buffer":0,"byteOffset":35488,"byteLength":12},{"buffer":0,"byteOffset":35500,"byteLength":48},{"buffer":0,"byteOffset":35548,"byteLength":12},{"buffer":0,"byteOffset":35560,"byteLength":48},{"buffer":0,"byteOffset":35608,"byteLength":12},{"buffer":0,"byteOffset":35620,"byteLength":36},{"buffer":0,"byteOffset":35656,"byteLength":12},{"buffer":0,"byteOffset":35668,"byteLength":48},{"buffer":0,"byteOffset":35716,"byteLength":12},{"buffer":0,"byteOffset":35728,"byteLength":48},{"buffer":0,"byteOffset":35776,"byteLength":12},{"buffer":0,"byteOffset":35788,"byteLength":48},{"buffer":0,"byteOffset":35836,"byteLength":12},{"buffer":0,"byteOffset":35848,"byteLength":48},{"buffer":0,"byteOffset":35896,"byteLength":12},{"buffer":0,"byteOffset":35908,"byteLength":36},{"buffer":0,"byteOffset":35944,"byteLength":12},{"buffer":0,"byteOffset":35956,"byteLength":48},{"buffer":0,"byteOffset":36004,"byteLength":12},{"buffer":0,"byteOffset":36016,"byteLength":48},{"buffer":0,"byteOffset":36064,"byteLength":12},{"buffer":0,"byteOffset":36076,"byteLength":48},{"buffer":0,"byteOffset":36124,"byteLength":12},{"buffer":0,"byteOffset":36136,"byteLength":48},{"buffer":0,"byteOffset":36184,"byteLength":12},{"buffer":0,"byteOffset":36196,"byteLength":36},{"buffer":0,"byteOffset":36232,"byteLength":12},{"buffer":0,"byteOffset":36244,"byteLength":48},{"buffer":0,"byteOffset":36292,"byteLength":12},{"buffer":0,"byteOffset":36304,"byteLength":48},{"buffer":0,"byteOffset":36352,"byteLength":12},{"buffer":0,"byteOffset":36364,"byteLength":48},{"buffer":0,"byteOffset":36412,"byteLength":12},{"buffer":0,"byteOffset":36424,"byteLength":48},{"buffer":0,"byteOffset":36472,"byteLength":12},{"buffer":0,"byteOffset":36484,"byteLength":36}],"buffers":[{"byteLength":36520,"uri":"data:application/octet-stream;base64,"}],"accessors":[{"bufferView":0,"componentType":5126,"count":144,"max":[0.17830875515937805,0.375,0.375],"min":[-0.19669124484062195,-0.375,-0.375],"type":"VEC3"},{"bufferView":1,"componentType":5126,"count":144,"max":[1,1,1],"min":[-1,-1,-1],"type":"VEC3"},{"bufferView":2,"componentType":5126,"count":144,"max":[0.7578125,0.7421875],"min":[0,0.0390625],"type":"VEC2"},{"bufferView":3,"componentType":5123,"count":192,"max":[143],"min":[0],"type":"SCALAR"},{"bufferView":4,"componentType":5126,"count":144,"max":[0.17830875515937805,0.375,0.375],"min":[-0.19669124484062195,-0.375,-0.375],"type":"VEC3"},{"bufferView":5,"componentType":5126,"count":144,"max":[1,1,1],"min":[-1,-1,-1],"type":"VEC3"},{"bufferView":6,"componentType":5126,"count":144,"max":[0.8046875,0.796875],"min":[0,0.0703125],"type":"VEC2"},{"bufferView":7,"componentType":5123,"count":192,"max":[143],"min":[0],"type":"SCALAR"},{"bufferView":8,"componentType":5126,"count":144,"max":[0.19669124484062195,0.375,0.375],"min":[-0.17830875515937805,-0.375,-0.375],"type":"VEC3"},{"bufferView":9,"componentType":5126,"count":144,"max":[1,1,1],"min":[-1,-1,-1],"type":"VEC3"},{"bufferView":10,"componentType":5126,"count":144,"max":[0.765625,0.7578125],"min":[0,0],"type":"VEC2"},{"bufferView":11,"componentType":5123,"count":192,"max":[143],"min":[0],"type":"SCALAR"},{"bufferView":12,"componentType":5126,"count":144,"max":[0.19669124484062195,0.375,0.375],"min":[-0.17830875515937805,-0.375,-0.375],"type":"VEC3"},{"bufferView":13,"componentType":5126,"count":144,"max":[1,1,1],"min":[-1,-1,-1],"type":"VEC3"},{"bufferView":14,"componentType":5126,"count":144,"max":[0.78125,0.78125],"min":[0,0.1328125],"type":"VEC2"},{"bufferView":15,"componentType":5123,"count":192,"max":[143],"min":[0],"type":"SCALAR"},{"bufferView":16,"componentType":5126,"count":328,"max":[0.6875,1.1875,1.5],"min":[-0.75,-0.0625,-1.625],"type":"VEC3"},{"bufferView":17,"componentType":5126,"count":328,"max":[1,1,1],"min":[-1,-1,-1],"type":"VEC3"},{"bufferView":18,"componentType":5126,"count":328,"max":[0.765625,0.8046875],"min":[0,0],"type":"VEC2"},{"bufferView":19,"componentType":5123,"count":492,"max":[327],"min":[0],"type":"SCALAR"},{"bufferView":20,"componentType":5126,"count":56,"max":[0.125,0.1875,0],"min":[-0.25,0,-0.13124999403953552],"type":"VEC3"},{"bufferView":21,"componentType":5126,"count":56,"max":[0.9520286321640015,1,1],"min":[-1,-1,-1],"type":"VEC3"},{"bufferView":22,"componentType":5126,"count":56,"max":[0.722801923751831,0.43752580881118774],"min":[0,0],"type":"VEC2"},{"bufferView":23,"componentType":5123,"count":84,"max":[55],"min":[0],"type":"SCALAR"},{"bufferView":24,"componentType":5126,"count":56,"max":[0.25,0.1875,0],"min":[-0.125,0,-0.13124999403953552],"type":"VEC3"},{"bufferView":25,"componentType":5126,"count":56,"max":[1,1,1],"min":[-0.9520286321640015,-1,-1],"type":"VEC3"},{"bufferView":26,"componentType":5126,"count":56,"max":[0.816551923751831,0.328125],"min":[0,0],"type":"VEC2"},{"bufferView":27,"componentType":5123,"count":84,"max":[55],"min":[0],"type":"SCALAR"},{"bufferView":28,"componentType":5126,"count":3,"max":[0.5],"min":[0],"type":"SCALAR"},{"bufferView":29,"componentType":5126,"count":3,"max":[1,0,0,1],"min":[0,0,0,6.123234262925839e-17],"type":"VEC4"},{"bufferView":30,"componentType":5126,"count":3,"max":[0.5],"min":[0],"type":"SCALAR"},{"bufferView":31,"componentType":5126,"count":3,"max":[1,0,0,1],"min":[0,0,0,6.123234262925839e-17],"type":"VEC4"},{"bufferView":32,"componentType":5126,"count":3,"max":[0.5],"min":[0],"type":"SCALAR"},{"bufferView":33,"componentType":5126,"count":3,"max":[1,0,0,1],"min":[0,0,0,6.123234262925839e-17],"type":"VEC4"},{"bufferView":34,"componentType":5126,"count":3,"max":[0.5],"min":[0],"type":"SCALAR"},{"bufferView":35,"componentType":5126,"count":3,"max":[1,0,0,1],"min":[0,0,0,6.123234262925839e-17],"type":"VEC4"},{"bufferView":36,"componentType":5126,"count":3,"max":[0.5],"min":[0],"type":"SCALAR"},{"bufferView":37,"componentType":5126,"count":3,"max":[0,0,0],"min":[0,-0.02500000037252903,0],"type":"VEC3"},{"bufferView":38,"componentType":5126,"count":3,"max":[0.5],"min":[0],"type":"SCALAR"},{"bufferView":39,"componentType":5126,"count":3,"max":[0.9659258127212524,0.258819043636322,0,0.9659258127212524],"min":[0,1.5848095630968816e-17,-0.258819043636322,5.914589533937914e-17],"type":"VEC4"},{"bufferView":40,"componentType":5126,"count":3,"max":[0.5],"min":[0],"type":"SCALAR"},{"bufferView":41,"componentType":5126,"count":3,"max":[1,0,0,1],"min":[0,0,0,6.123234262925839e-17],"type":"VEC4"},{"bufferView":42,"componentType":5126,"count":3,"max":[0.5],"min":[0],"type":"SCALAR"},{"bufferView":43,"componentType":5126,"count":3,"max":[0.9659258127212524,0.258819043636322,0,0.9659258127212524],"min":[0,1.5848095630968816e-17,-0.258819043636322,5.914589533937914e-17],"type":"VEC4"},{"bufferView":44,"componentType":5126,"count":3,"max":[0.5],"min":[0],"type":"SCALAR"},{"bufferView":45,"componentType":5126,"count":3,"max":[1,0,0,1],"min":[0,0,0,6.123234262925839e-17],"type":"VEC4"},{"bufferView":46,"componentType":5126,"count":3,"max":[0.5],"min":[0],"type":"SCALAR"},{"bufferView":47,"componentType":5126,"count":3,"max":[0,0,0],"min":[0,-0.02500000037252903,0],"type":"VEC3"},{"bufferView":48,"componentType":5126,"count":3,"max":[0.5],"min":[0],"type":"SCALAR"},{"bufferView":49,"componentType":5126,"count":3,"max":[0.9659258127212524,-1.5848095630968816e-17,0.258819043636322,0.9659258127212524],"min":[0,-0.258819043636322,0,5.914589533937914e-17],"type":"VEC4"},{"bufferView":50,"componentType":5126,"count":3,"max":[0.5],"min":[0],"type":"SCALAR"},{"bufferView":51,"componentType":5126,"count":3,"max":[1,0,0,1],"min":[0,0,0,6.123234262925839e-17],"type":"VEC4"},{"bufferView":52,"componentType":5126,"count":3,"max":[0.5],"min":[0],"type":"SCALAR"},{"bufferView":53,"componentType":5126,"count":3,"max":[0.9659258127212524,-1.5848095630968816e-17,0.258819043636322,0.9659258127212524],"min":[0,-0.258819043636322,0,5.914589533937914e-17],"type":"VEC4"},{"bufferView":54,"componentType":5126,"count":3,"max":[0.5],"min":[0],"type":"SCALAR"},{"bufferView":55,"componentType":5126,"count":3,"max":[1,0,0,1],"min":[0,0,0,6.123234262925839e-17],"type":"VEC4"},{"bufferView":56,"componentType":5126,"count":3,"max":[0.5],"min":[0],"type":"SCALAR"},{"bufferView":57,"componentType":5126,"count":3,"max":[0,0,0],"min":[0,-0.02500000037252903,0],"type":"VEC3"},{"bufferView":58,"componentType":5126,"count":3,"max":[0.5],"min":[0],"type":"SCALAR"},{"bufferView":59,"componentType":5126,"count":3,"max":[0,0,0,1],"min":[-1,0,0,6.123234262925839e-17],"type":"VEC4"},{"bufferView":60,"componentType":5126,"count":3,"max":[0.5],"min":[0],"type":"SCALAR"},{"bufferView":61,"componentType":5126,"count":3,"max":[0,0,0,1],"min":[-1,0,0,6.123234262925839e-17],"type":"VEC4"},{"bufferView":62,"componentType":5126,"count":3,"max":[0.5],"min":[0],"type":"SCALAR"},{"bufferView":63,"componentType":5126,"count":3,"max":[0,0,0,1],"min":[-1,0,0,6.123234262925839e-17],"type":"VEC4"},{"bufferView":64,"componentType":5126,"count":3,"max":[0.5],"min":[0],"type":"SCALAR"},{"bufferView":65,"componentType":5126,"count":3,"max":[0,0,0,1],"min":[-1,0,0,6.123234262925839e-17],"type":"VEC4"},{"bufferView":66,"componentType":5126,"count":3,"max":[0.5],"min":[0],"type":"SCALAR"},{"bufferView":67,"componentType":5126,"count":3,"max":[0,0,0],"min":[0,-0.02500000037252903,0],"type":"VEC3"}],"materials":[{"pbrMetallicRoughness":{"metallicFactor":0,"roughnessFactor":1,"baseColorTexture":{"index":0}},"alphaMode":"MASK","alphaCutoff":0.05,"doubleSided":true}],"textures":[{"sampler":0,"source":0,"name":"truck.png"}],"samplers":[{"magFilter":9728,"minFilter":9728,"wrapS":33071,"wrapT":33071}],"images":[{"mimeType":"image/png","uri":"data:image/png;base64,"}],"meshes":[{"primitives":[{"mode":4,"attributes":{"POSITION":0,"NORMAL":1,"TEXCOORD_0":2},"indices":3,"material":0}]},{"primitives":[{"mode":4,"attributes":{"POSITION":4,"NORMAL":5,"TEXCOORD_0":6},"indices":7,"material":0}]},{"primitives":[{"mode":4,"attributes":{"POSITION":8,"NORMAL":9,"TEXCOORD_0":10},"indices":11,"material":0}]},{"primitives":[{"mode":4,"attributes":{"POSITION":12,"NORMAL":13,"TEXCOORD_0":14},"indices":15,"material":0}]},{"primitives":[{"mode":4,"attributes":{"POSITION":16,"NORMAL":17,"TEXCOORD_0":18},"indices":19,"material":0}]},{"primitives":[{"mode":4,"attributes":{"POSITION":20,"NORMAL":21,"TEXCOORD_0":22},"indices":23,"material":0}]},{"primitives":[{"mode":4,"attributes":{"POSITION":24,"NORMAL":25,"TEXCOORD_0":26},"indices":27,"material":0}]}],"animations":[{"name":"Drive","samplers":[{"input":28,"output":29,"interpolation":"LINEAR"},{"input":30,"output":31,"interpolation":"LINEAR"},{"input":32,"output":33,"interpolation":"LINEAR"},{"input":34,"output":35,"interpolation":"LINEAR"},{"input":36,"output":37,"interpolation":"LINEAR"}],"channels":[{"sampler":0,"target":{"node":1,"path":"rotation"}},{"sampler":1,"target":{"node":3,"path":"rotation"}},{"sampler":2,"target":{"node":5,"path":"rotation"}},{"sampler":3,"target":{"node":7,"path":"rotation"}},{"sampler":4,"target":{"node":11,"path":"translation"}}]},{"name":"TurnL","samplers":[{"input":38,"output":39,"interpolation":"LINEAR"},{"input":40,"output":41,"interpolation":"LINEAR"},{"input":42,"output":43,"interpolation":"LINEAR"},{"input":44,"output":45,"interpolation":"LINEAR"},{"input":46,"output":47,"interpolation":"LINEAR"}],"channels":[{"sampler":0,"target":{"node":1,"path":"rotation"}},{"sampler":1,"target":{"node":3,"path":"rotation"}},{"sampler":2,"target":{"node":5,"path":"rotation"}},{"sampler":3,"target":{"node":7,"path":"rotation"}},{"sampler":4,"target":{"node":11,"path":"translation"}}]},{"name":"TurnR","samplers":[{"input":48,"output":49,"interpolation":"LINEAR"},{"input":50,"output":51,"interpolation":"LINEAR"},{"input":52,"output":53,"interpolation":"LINEAR"},{"input":54,"output":55,"interpolation":"LINEAR"},{"input":56,"output":57,"interpolation":"LINEAR"}],"channels":[{"sampler":0,"target":{"node":1,"path":"rotation"}},{"sampler":1,"target":{"node":3,"path":"rotation"}},{"sampler":2,"target":{"node":5,"path":"rotation"}},{"sampler":3,"target":{"node":7,"path":"rotation"}},{"sampler":4,"target":{"node":11,"path":"translation"}}]},{"name":"Reverse","samplers":[{"input":58,"output":59,"interpolation":"LINEAR"},{"input":60,"output":61,"interpolation":"LINEAR"},{"input":62,"output":63,"interpolation":"LINEAR"},{"input":64,"output":65,"interpolation":"LINEAR"},{"input":66,"output":67,"interpolation":"LINEAR"}],"channels":[{"sampler":0,"target":{"node":1,"path":"rotation"}},{"sampler":1,"target":{"node":3,"path":"rotation"}},{"sampler":2,"target":{"node":5,"path":"rotation"}},{"sampler":3,"target":{"node":7,"path":"rotation"}},{"sampler":4,"target":{"node":11,"path":"translation"}}]}]}